<svg xmlns="http://www.w3.org/2000/svg" xmlns:xlink="http://www.w3.org/1999/xlink" width="320" zoomAndPan="magnify" viewBox="0 0 240 239.999995" height="320" preserveAspectRatio="xMidYMid meet" version="1.0"><path fill="#959595" d="M 216 120 C 216 121.570312 215.960938 123.140625 215.882812 124.710938 C 215.808594 126.28125 215.691406 127.847656 215.539062 129.410156 C 215.382812 130.972656 215.191406 132.53125 214.960938 134.085938 C 214.730469 135.640625 214.460938 137.1875 214.15625 138.730469 C 213.847656 140.269531 213.503906 141.800781 213.121094 143.324219 C 212.742188 144.851562 212.324219 146.363281 211.867188 147.867188 C 211.410156 149.371094 210.917969 150.863281 210.386719 152.339844 C 209.859375 153.820312 209.292969 155.285156 208.691406 156.738281 C 208.089844 158.1875 207.453125 159.625 206.78125 161.046875 C 206.109375 162.464844 205.40625 163.867188 204.664062 165.253906 C 203.921875 166.640625 203.148438 168.007812 202.34375 169.355469 C 201.535156 170.703125 200.695312 172.027344 199.820312 173.335938 C 198.949219 174.640625 198.042969 175.925781 197.109375 177.1875 C 196.171875 178.449219 195.207031 179.6875 194.210938 180.902344 C 193.210938 182.117188 192.1875 183.304688 191.132812 184.46875 C 190.078125 185.632812 188.992188 186.769531 187.882812 187.882812 C 186.769531 188.992188 185.632812 190.078125 184.46875 191.132812 C 183.304688 192.1875 182.117188 193.210938 180.902344 194.207031 C 179.6875 195.207031 178.449219 196.171875 177.1875 197.109375 C 175.925781 198.042969 174.640625 198.949219 173.335938 199.820312 C 172.027344 200.695312 170.703125 201.535156 169.355469 202.34375 C 168.007812 203.148438 166.640625 203.921875 165.253906 204.664062 C 163.867188 205.40625 162.464844 206.109375 161.046875 206.78125 C 159.625 207.453125 158.1875 208.089844 156.738281 208.691406 C 155.285156 209.292969 153.820312 209.859375 152.339844 210.386719 C 150.863281 210.917969 149.371094 211.410156 147.867188 211.867188 C 146.363281 212.324219 144.851562 212.742188 143.324219 213.121094 C 141.800781 213.503906 140.269531 213.847656 138.730469 214.15625 C 137.1875 214.460938 135.640625 214.730469 134.085938 214.960938 C 132.53125 215.191406 130.972656 215.382812 129.410156 215.539062 C 127.847656 215.691406 126.28125 215.808594 124.710938 215.882812 C 123.140625 215.960938 121.570312 216 120 216 C 118.429688 216 116.859375 215.960938 115.289062 215.882812 C 113.71875 215.808594 112.152344 215.691406 110.589844 215.539062 C 109.027344 215.382812 107.46875 215.191406 105.914062 214.960938 C 104.359375 214.730469 102.8125 214.460938 101.269531 214.15625 C 99.730469 213.847656 98.199219 213.503906 96.675781 213.121094 C 95.148438 212.742188 93.636719 212.324219 92.132812 211.867188 C 90.628906 211.410156 89.136719 210.917969 87.660156 210.386719 C 86.179688 209.859375 84.714844 209.292969 83.261719 208.691406 C 81.8125 208.089844 80.375 207.453125 78.953125 206.78125 C 77.535156 206.109375 76.132812 205.40625 74.746094 204.664062 C 73.359375 203.921875 71.992188 203.148438 70.644531 202.34375 C 69.296875 201.535156 67.972656 200.695312 66.664062 199.820312 C 65.359375 198.949219 64.074219 198.042969 62.8125 197.109375 C 61.550781 196.171875 60.3125 195.207031 59.097656 194.207031 C 57.882812 193.210938 56.695312 192.1875 55.53125 191.132812 C 54.367188 190.078125 53.230469 188.992188 52.117188 187.882812 C 51.007812 186.769531 49.921875 185.632812 48.867188 184.46875 C 47.8125 183.304688 46.789062 182.117188 45.789062 180.902344 C 44.792969 179.6875 43.828125 178.449219 42.890625 177.1875 C 41.957031 175.925781 41.050781 174.640625 40.179688 173.335938 C 39.304688 172.027344 38.464844 170.703125 37.65625 169.355469 C 36.851562 168.007812 36.078125 166.640625 35.335938 165.253906 C 34.59375 163.867188 33.890625 162.464844 33.21875 161.046875 C 32.546875 159.625 31.910156 158.1875 31.308594 156.738281 C 30.707031 155.285156 30.140625 153.820312 29.613281 152.339844 C 29.082031 150.863281 28.589844 149.371094 28.132812 147.867188 C 27.675781 146.363281 27.257812 144.851562 26.878906 143.324219 C 26.496094 141.800781 26.152344 140.269531 25.84375 138.730469 C 25.539062 137.1875 25.269531 135.640625 25.039062 134.085938 C 24.808594 132.53125 24.617188 130.972656 24.460938 129.410156 C 24.308594 127.847656 24.191406 126.28125 24.117188 124.710938 C 24.039062 123.140625 24 121.570312 24 120 C 24 118.429688 24.039062 116.859375 24.117188 115.289062 C 24.191406 113.71875 24.308594 112.152344 24.460938 110.589844 C 24.617188 109.027344 24.808594 107.46875 25.039062 105.914062 C 25.269531 104.359375 25.539062 102.8125 25.84375 101.269531 C 26.152344 99.730469 26.496094 98.199219 26.878906 96.675781 C 27.257812 95.148438 27.675781 93.636719 28.132812 92.132812 C 28.589844 90.628906 29.082031 89.136719 29.613281 87.660156 C 30.140625 86.179688 30.707031 84.714844 31.308594 83.261719 C 31.910156 81.8125 32.546875 80.375 33.21875 78.953125 C 33.890625 77.535156 34.59375 76.132812 35.335938 74.746094 C 36.078125 73.359375 36.851562 71.992188 37.65625 70.644531 C 38.464844 69.296875 39.304688 67.972656 40.179688 66.664062 C 41.050781 65.359375 41.957031 64.074219 42.890625 62.8125 C 43.828125 61.550781 44.792969 60.3125 45.789062 59.097656 C 46.789062 57.882812 47.8125 56.695312 48.867188 55.53125 C 49.921875 54.367188 51.007812 53.230469 52.117188 52.117188 C 53.230469 51.007812 54.367188 49.921875 55.53125 48.867188 C 56.695312 47.8125 57.882812 46.789062 59.097656 45.789062 C 60.3125 44.792969 61.550781 43.828125 62.8125 42.890625 C 64.074219 41.957031 65.359375 41.050781 66.664062 40.179688 C 67.972656 39.304688 69.296875 38.464844 70.644531 37.65625 C 71.992188 36.851562 73.359375 36.078125 74.746094 35.335938 C 76.132812 34.59375 77.535156 33.890625 78.953125 33.21875 C 80.375 32.546875 81.8125 31.910156 83.261719 31.308594 C 84.714844 30.707031 86.179688 30.140625 87.660156 29.613281 C 89.136719 29.082031 90.628906 28.589844 92.132812 28.132812 C 93.636719 27.675781 95.148438 27.257812 96.675781 26.878906 C 98.199219 26.496094 99.730469 26.152344 101.269531 25.84375 C 102.8125 25.539062 104.359375 25.269531 105.914062 25.039062 C 107.46875 24.808594 109.027344 24.617188 110.589844 24.460938 C 112.152344 24.308594 113.71875 24.191406 115.289062 24.117188 C 116.859375 24.039062 118.429688 24 120 24 C 121.570312 24 123.140625 24.039062 124.710938 24.117188 C 126.28125 24.191406 127.847656 24.308594 129.410156 24.460938 C 130.972656 24.617188 132.53125 24.808594 134.085938 25.039062 C 135.640625 25.269531 137.1875 25.539062 138.730469 25.84375 C 140.269531 26.152344 141.800781 26.496094 143.324219 26.878906 C 144.851562 27.257812 146.363281 27.675781 147.867188 28.132812 C 149.371094 28.589844 150.863281 29.082031 152.339844 29.613281 C 153.820312 30.140625 155.285156 30.707031 156.738281 31.308594 C 158.1875 31.910156 159.625 32.546875 161.046875 33.21875 C 162.464844 33.890625 163.867188 34.59375 165.253906 35.335938 C 166.640625 36.078125 168.007812 36.851562 169.355469 37.65625 C 170.703125 38.464844 172.027344 39.304688 173.335938 40.179688 C 174.640625 41.050781 175.925781 41.957031 177.1875 42.890625 C 178.449219 43.828125 179.6875 44.792969 180.902344 45.789062 C 182.117188 46.789062 183.304688 47.8125 184.46875 48.867188 C 185.632812 49.921875 186.769531 51.007812 187.882812 52.117188 C 188.992188 53.230469 190.078125 54.367188 191.132812 55.53125 C 192.1875 56.695312 193.210938 57.882812 194.210938 59.097656 C 195.207031 60.3125 196.171875 61.550781 197.109375 62.8125 C 198.042969 64.074219 198.949219 65.359375 199.820312 66.664062 C 200.695312 67.972656 201.535156 69.296875 202.34375 70.644531 C 203.148438 71.992188 203.921875 73.359375 204.664062 74.746094 C 205.40625 76.132812 206.109375 77.535156 206.78125 78.953125 C 207.453125 80.375 208.089844 81.8125 208.691406 83.261719 C 209.292969 84.714844 209.859375 86.179688 210.386719 87.660156 C 210.917969 89.136719 211.410156 90.628906 211.867188 92.132812 C 212.324219 93.636719 212.742188 95.148438 213.121094 96.675781 C 213.503906 98.199219 213.847656 99.730469 214.15625 101.269531 C 214.460938 102.8125 214.730469 104.359375 214.960938 105.914062 C 215.191406 107.46875 215.382812 109.027344 215.539062 110.589844 C 215.691406 112.152344 215.808594 113.71875 215.882812 115.289062 C 215.960938 116.859375 216 118.429688 216 120 Z M 216 120 " fill-opacity="1" fill-rule="nonzero"/><path fill="#d9d9d9" d="M 120 108.273438 C 137.035156 108.273438 150.839844 94.464844 150.839844 77.429688 C 150.839844 60.398438 137.035156 46.589844 120 46.589844 C 102.964844 46.589844 89.160156 60.398438 89.160156 77.429688 C 89.160156 94.464844 102.964844 108.273438 120 108.273438 Z M 120 108.273438 " fill-opacity="1" fill-rule="nonzero"/><path fill="#d9d9d9" d="M 87.070312 187.101562 C 45.140625 170.378906 74.859375 122.171875 120 122.171875 C 165.140625 122.171875 194.859375 170.378906 152.929688 187.101562 C 142.703125 191.179688 131.601562 193.410156 120 193.410156 C 108.398438 193.410156 97.296875 191.179688 87.070312 187.101562 Z M 87.070312 187.101562 " fill-opacity="1" fill-rule="nonzero"/></svg>